<?xml version="1.0" encoding="UTF-8" standalone="no"?>
<!DOCTYPE svg PUBLIC "-//W3C//DTD SVG 1.1//EN" "http://www.w3.org/Graphics/SVG/1.1/DTD/svg11.dtd">
<svg width="100%" height="100%" viewBox="0 0 800 800" version="1.1" xmlns="http://www.w3.org/2000/svg" xmlns:xlink="http://www.w3.org/1999/xlink" xml:space="preserve" xmlns:serif="http://www.serif.com/" style="fill-rule:evenodd;clip-rule:evenodd;stroke-linejoin:round;">
    <circle cx="400" cy="400" r="400" style="fill:rgb(8,101,177);"/>
    <g transform="matrix(5.39427,0,0,5.39427,400,400)">
        <g transform="matrix(1,0,0,1,-50,-50)">
            <path d="M7.937,92.135C9.584,89.618 14.897,86.777 17.247,85.765C23.293,83.795 26.866,86.765 29.792,89.799C32.792,93.263 32.019,93.938 33.255,93.186C37.738,90.124 41.179,85.859 44.853,81.879C50.873,75.528 54.218,79.832 54.405,84.393C54.525,86.703 54.425,90.36 56.317,91.442C57.066,89.801 52.397,92.596 56.908,89.562C58.594,88.428 60.312,87.417 62.03,86.406C69.209,82.297 76.727,78.49 81.791,81.763C82.665,82.654 82.289,82.182 82.937,83.162C83.088,87.251 79.322,88.453 76.586,85.532C76.407,85.198 76.084,84.522 75.911,84.257C75.067,82.296 67.57,88.151 65.789,89.182C60.095,92.635 54.99,97.56 50.467,94.551C48.281,92.402 47.966,88.952 47.72,85.49C47.346,79.846 51.833,82.013 50.297,83.502C46.014,87.85 42.242,92.454 37.259,95.995C29.345,100.904 27.127,96.173 24.001,92.614C23.14,91.748 20.534,89.39 19.848,89.388C18.114,89.925 14.822,93.273 14.655,92.656C12.003,95.575 8.939,95.401 7.937,92.135L7.937,92.135Z" style="fill:white;fill-rule:nonzero;"/>
            <g transform="matrix(0.562,0,0,0.57014,-4.298,-6.4231)">
                <path d="M34.741,141.95C38.601,129.499 44.311,123.031 51.063,112.026C59.552,99.711 64.463,88.344 75.92,76.996C88.112,62.795 106.696,42.474 126.117,39.469C145.809,38.176 168.689,22.536 172.211,23.53C165.958,35.57 173.386,49.062 169.366,62.027C166.437,70.282 127.991,91.86 122.668,94.307C116.251,98.186 93.408,121.931 87.137,126.256C80.147,132.315 81.549,139.989 70.676,139.661C70.257,139.56 47.912,142.37 39.196,143.557C35.861,152.399 63.982,142.964 49.391,149.442C42.561,152.477 30.714,152.523 34.739,141.951L34.741,141.95Z" style="fill:rgb(243,243,243);"/>
            </g>
            <g transform="matrix(0.562,0,0,0.57014,-4.298,-6.4231)">
                <path d="M49.856,129.33C52.368,129.497 74.043,130.823 85.776,124.812C66.345,127.266 54.675,125.699 52.487,126.012C51.974,126.659 50.848,128.437 49.856,129.33L49.856,129.33Z" style="fill:white;"/>
            </g>
            <g transform="matrix(0.562,0,0,0.57014,-4.298,-6.4231)">
                <path d="M43.479,139.8C45.991,139.967 69.628,137.529 81.361,131.518C61.93,133.972 48.649,135.486 45.791,135.966C45.645,136.975 44.471,138.907 43.478,139.8L43.479,139.8Z" style="fill:white;"/>
            </g>
            <g transform="matrix(0.562,0,0,0.57014,-4.298,-6.4231)">
                <path d="M56.087,121.2C58.599,121.367 84.365,123.128 96.098,117.118C76.667,119.572 61.392,117.389 59.205,117.701C58.692,118.349 57.08,120.307 56.087,121.2L56.087,121.2Z" style="fill:white;"/>
            </g>
            <g transform="matrix(0.562,0,0,0.57014,-4.298,-6.4231)">
                <path d="M63.998,111.88C66.51,112.047 92.675,114.632 104.408,108.622C84.977,111.075 69.67,107.888 67.483,108.2C66.97,108.848 64.991,110.987 63.998,111.88L63.998,111.88Z" style="fill:white;"/>
            </g>
            <g transform="matrix(0.562,0,0,0.57014,-4.298,-6.4231)">
                <path d="M73.105,102.33C75.617,102.497 101.535,106.101 113.268,100.09C93.837,102.544 78.778,98.519 76.59,98.831C76.077,99.479 74.098,101.437 73.105,102.33L73.105,102.33Z" style="fill:white;"/>
            </g>
            <g transform="matrix(0.562,0,0,0.57014,-4.298,-6.4231)">
                <path d="M83.775,91.282C86.287,91.449 115.02,92.514 126.083,90.69C111.007,89.292 89.631,87.471 87.443,87.783C86.93,88.431 84.768,90.389 83.775,91.282L83.775,91.282Z" style="fill:white;"/>
            </g>
            <g transform="matrix(0.562,0,0,0.57014,-4.298,-6.4231)">
                <path d="M94.979,80.384C97.491,80.551 129.246,85.327 140.309,82.833C124.73,81.1 101.018,76.754 98.83,77.066C98.317,77.713 95.971,79.491 94.978,80.384L94.979,80.384Z" style="fill:white;"/>
            </g>
            <g transform="matrix(0.562,0,0,0.57014,-4.298,-6.4231)">
                <path d="M106.06,70.865C108.572,71.032 141.906,76.94 152.299,74.781C141.242,73.718 112.649,66.873 110.462,67.185C109.949,67.833 107.053,69.972 106.06,70.865Z" style="fill:white;"/>
            </g>
            <g transform="matrix(0.562,0,0,0.57014,-4.298,-6.4231)">
                <path d="M118.81,61.139C121.322,61.306 154.106,67.576 163.159,66.422C150.762,65.526 125.67,58.359 123.483,58.672C122.635,59.654 119.803,60.246 118.81,61.139Z" style="fill:white;"/>
            </g>
            <g transform="matrix(0.562,0,0,0.57014,-4.298,-6.4231)">
                <path d="M133.88,53.281C136.392,53.448 159.559,58.197 168.78,58.383C156.216,56.482 141.275,50.488 139.088,50.8C138.575,51.448 134.874,52.388 133.881,53.281L133.88,53.281Z" style="fill:white;"/>
            </g>
            <g transform="matrix(0.562,0,0,0.57014,-4.298,-6.4231)">
                <path d="M146.96,47.072C149.472,47.239 160.23,49.992 169.619,48.336C159.399,48.11 153.135,44.6 150.947,44.913C150.434,45.56 147.953,46.179 146.96,47.072L146.96,47.072Z" style="fill:white;"/>
            </g>
            <g transform="matrix(0.562,0,0,0.57014,-4.298,-6.4231)">
                <path d="M157.32,40.051C159.832,40.218 164.179,39.454 167.706,37.128C162.845,38.074 162.49,36.91 160.302,37.222C159.79,37.869 158.313,39.158 157.32,40.051L157.32,40.051Z" style="fill:white;"/>
            </g>
            <g transform="matrix(0.562,0,0,0.57014,-4.298,-6.4231)">
                <path d="M164.31,33.045C166.822,33.212 169.941,28.724 170.621,24.89C168.942,27.177 168.643,28.343 167.795,28.823C167.282,29.47 165.303,32.152 164.31,33.045Z" style="fill:white;"/>
            </g>
            <path d="M62.78,24.438L60.306,25.675C59.997,25.056 61.234,19.181 63.708,17.634C62.471,19.799 61.44,24.438 62.78,24.438L62.78,24.438Z" style="fill:white;"/>
            <path d="M70.886,20.056L69.134,21.087C68.824,20.468 68.927,17.582 71.504,16.139C70.164,17.479 69.546,20.056 70.886,20.056L70.886,20.056Z" style="fill:white;"/>
            <path d="M78.308,16.758L76.556,17.789C76.246,17.17 78.514,14.49 80.267,13.047C78.411,15.418 77.896,16.449 78.308,16.758Z" style="fill:white;"/>
            <path d="M84.081,13.046L82.329,14.077C82.019,13.458 84.39,11.5 86.143,10.056C84.596,11.912 82.741,13.046 84.081,13.046Z" style="fill:white;"/>
            <path d="M54.804,29.747L52.742,31.19C52.433,30.572 52.845,23.871 54.598,22.428C53.464,24.799 53.464,29.747 54.804,29.747L54.804,29.747Z" style="fill:white;"/>
            <path d="M47.692,35.932L46.146,37.272C45.836,36.654 46.043,30.572 48.104,28.097C47.177,29.953 46.352,35.932 47.692,35.932L47.692,35.932Z" style="fill:white;"/>
            <path d="M40.991,42.014L39.445,43.354C39.135,42.736 39.96,36.447 41.713,35.004C40.476,37.066 39.651,42.014 40.991,42.014L40.991,42.014Z" style="fill:white;"/>
            <path d="M35.527,47.89L33.775,49.23C33.568,48.405 33.878,43.457 35.63,42.014C34.599,44.385 34.187,47.89 35.527,47.89L35.527,47.89Z" style="fill:white;"/>
            <path d="M30.167,53.56L28.621,54.9C28.311,54.282 29.755,49.643 31.301,47.684C30.064,49.849 28.827,53.56 30.167,53.56L30.167,53.56Z" style="fill:white;"/>
            <path d="M25.012,59.126L23.981,60.363C23.672,59.744 25.115,57.477 26.971,55.312C26.661,57.58 23.672,59.126 25.012,59.126Z" style="fill:white;"/>
            <g transform="matrix(0.562,0,0,0.57014,-4.298,-6.4231)">
                <path d="M141.66,45.031C130.802,49.93 116.875,56.036 105.222,65.406C78.607,87.25 69.57,98.841 56.878,111.687C56.878,111.687 30.414,141.223 25.19,169.468C24.117,179.218 29.919,177.718 31.346,170.593C36.336,143.614 50.914,124.12 60.471,114.124C71.972,101.782 83.334,86.247 110.783,65.453C121.006,57.039 131.927,52.294 142.971,47.311C155.404,42.602 157.59,37.748 168.283,27.123C163.881,30.739 152.516,40.13 141.658,45.029L141.66,45.031Z" style="fill:white;stroke:white;stroke-width:2.21px;"/>
            </g>
        </g>
    </g>
</svg>
