<?xml version="1.0" encoding="UTF-8" standalone="no"?>
<!DOCTYPE svg PUBLIC "-//W3C//DTD SVG 1.1//EN" "http://www.w3.org/Graphics/SVG/1.1/DTD/svg11.dtd">
<svg width="100%" height="100%" viewBox="0 0 667 667" version="1.1" xmlns="http://www.w3.org/2000/svg" xmlns:xlink="http://www.w3.org/1999/xlink" xml:space="preserve" xmlns:serif="http://www.serif.com/" style="fill-rule:evenodd;clip-rule:evenodd;stroke-linejoin:round;stroke-miterlimit:2;">
    <g transform="matrix(1.33333,0,0,1.33333,0,0)">
        <g transform="matrix(1.40029,0,0,1.40029,-100.079,-873.54)">
            <path d="M269.73,630.56C174.844,619.665 89.09,687.754 78.2,782.64C67.305,877.526 135.394,963.28 230.28,974.17C325.166,985.06 410.92,916.976 421.81,822.09C432.705,727.204 364.616,641.45 269.73,630.56ZM267.955,646.015C354.306,655.93 416.265,733.968 406.355,820.315C396.44,906.666 318.402,968.625 232.055,958.715C145.704,948.8 83.745,870.762 93.655,784.415C103.57,698.064 181.608,636.105 267.955,646.015Z" style="fill:rgb(85,85,85);fill-rule:nonzero;"/>
            <g transform="matrix(1.5749,0,0,1.5749,-204.86,-430.34)">
                <g transform="matrix(1,0,0,1,0,552.36)">
                    <path d="M303.57,167.92C302.566,167.99 301.617,168.544 301.074,169.484L299.07,172.953L332.509,192.26L334.513,188.791C335.382,187.286 334.87,185.373 333.365,184.504L305.359,168.336C304.794,168.01 304.172,167.878 303.569,167.92L303.57,167.92ZM296.984,176.567L254.828,249.585L288.267,268.89L330.423,195.873L296.984,176.567ZM252.742,253.198L250.756,256.637C249.887,258.142 250.399,260.053 251.904,260.922L279.91,277.09C281.415,277.959 283.326,277.447 284.195,275.942L286.182,272.502L252.743,253.197L252.742,253.198Z" style="fill:rgb(85,85,85);fill-rule:nonzero;"/>
                </g>
                <path d="M249,850.66C247.939,850.047 248.319,847.014 248.319,847.014L248.917,841.15L249.516,835.287L250.114,829.424L250.713,823.56L251.311,817.697L251.91,811.834L252.508,805.971L285.948,825.277L281.17,828.727L276.391,832.177L271.613,835.627L266.834,839.077L262.056,842.527L257.277,845.977L252.499,849.427C252.499,849.427 250.062,851.273 249,850.66L249,850.66Z" style="fill:rgb(85,85,85);fill-rule:nonzero;"/>
            </g>
        </g>
    </g>
</svg>
